<svg id="_1-Flasks" data-name="1-Flasks" xmlns="http://www.w3.org/2000/svg" viewBox="0 0 48 48"><title>1-Flasks</title><path d="M38.75,26A18.589,18.589,0,0,1,39,29,18,18,0,0,1,3,29a18.589,18.589,0,0,1,.25-3H9c3,0,3-2,6-2s3.01,2,6.01,2,3-2,6-2S30,26,33,26Z" style="fill:#65ccd8"/><path d="M27,1V4a1,1,0,0,1-1,1H16a1,1,0,0,1-1-1V1Z" style="fill:#d0d7df"/><path d="M38.75,26H33c-3,0-3-2-5.99-2s-3,2-6,2-3-2-6.01-2-3,2-6,2H3.25A18.029,18.029,0,0,1,17,11.46V5h8v6.46A18.029,18.029,0,0,1,38.75,26Z" style="fill:#f1f2f2"/><path d="M42,12V44a3,3,0,0,1-3,3H37a3,3,0,0,1-3-3V12Z" style="fill:#d0d7df"/><path d="M44,8v3a1,1,0,0,1-1,1H33a1,1,0,0,1-1-1V8Z" style="fill:#a4b0c0"/><path d="M20,41a1,1,0,0,0-1-1,8.009,8.009,0,0,1-8-8,1,1,0,0,0-2,0A10.011,10.011,0,0,0,19,42,1,1,0,0,0,20,41Z" style="fill:#f1f2f2"/><path d="M27.006,23a5.738,5.738,0,0,0-3.554,1.168,4.012,4.012,0,0,1-4.892,0A5.751,5.751,0,0,0,15,23a5.748,5.748,0,0,0-3.556,1.168A3.786,3.786,0,0,1,9,25a1,1,0,0,0,0,2,5.748,5.748,0,0,0,3.556-1.168A3.786,3.786,0,0,1,15,25a3.784,3.784,0,0,1,2.447.832,6,6,0,0,0,7.111,0A3.78,3.78,0,0,1,27.006,25a1,1,0,0,0,0-2Z" style="fill:#2ec1d5"/><path d="M14,2a1,1,0,0,0,1,1H27a1,1,0,0,0,0-2H15a1,1,0,0,0-1,1Z" style="fill:#a4b0c0"/><path d="M31,8a1,1,0,0,0,1,1H44a1,1,0,0,0,0-2H32a1,1,0,0,0-1,1Z" style="fill:#768ba0"/></svg>